<svg xmlns="http://www.w3.org/2000/svg" viewBox="0 0 575 97"><path fill="#004346" fill-rule="evenodd" d="M433.684 77.69c-94.329-8.501-189.288-8.739-283.653-.714C99.985 81.233 50.106 87.813.576 96.718v-2.199c49.53-8.56 99.409-14.886 149.455-18.978 94.365-7.715 189.324-7.486 283.653.687 47.311 4.099 94.464 10.196 141.304 18.291v2.199c-46.84-8.421-93.993-14.764-141.304-19.028Zm85.021-71.783c17.089-1.749 34.144-3.693 51.159-5.833v11.581c-12.834 1.145-25.691 2.21-38.568 3.197v17.469c11.746-.272 23.476-.565 35.186-.877v11.565c-11.71-.114-23.44-.222-35.186-.322V61.5c13.278.877 26.535 1.827 39.768 2.849v11.625c-17.413-1.984-34.869-3.784-52.359-5.399V5.907Zm-64.551 20.217v39.339c-4.216-.279-8.434-.548-12.654-.805V12.466c4.22-.286 8.438-.583 12.654-.892 12.1 11.866 24.189 24.834 36.262 39.296V8.621c4.281-.384 8.56-.779 12.837-1.187v61.763c-4.058-.349-8.117-.688-12.178-1.017-12.293-15.504-24.601-29.383-36.921-42.056Zm-36.552-12.167c2.241-.128 4.481-.259 6.721-.394v50.105c-2.24-.121-4.48-.24-6.721-.355V13.957Zm-25.466 8.473c-8.126 7.785-16.254 15.198-24.385 22.358-1.251-.009-2.502-.018-3.753-.026-8.206-7.237-16.414-14.214-24.624-21.051v36.791c-2.282-.046-4.565-.09-6.848-.13V17.216c2.246-.044 4.492-.091 6.738-.142 8.872 7.265 17.743 14.675 26.61 22.381 8.757-7.718 17.511-15.731 26.262-24.188 2.316-.106 4.632-.216 6.948-.329v47.49c-2.316-.103-4.632-.202-6.948-.297V22.43Zm-128.66 1.42v36.243c-2.246.021-4.493.046-6.739.074V17.444c2.246.031 4.493.058 6.739.082 14.547 12.114 29.096 23.841 43.643 35.849V17.573c2.283-.019 4.567-.042 6.85-.068v42.607c-2.21-.023-4.419-.043-6.629-.06-14.621-12.17-29.244-24.009-43.864-36.202Zm-32.143-6.893c2.245.055 4.491.108 6.737.157v43.351c-2.246.044-4.492.091-6.737.141V16.957Zm-28.042 30.777c-11.515.14-23.024.309-34.526.507-3.05 4.899-6.099 9.891-9.148 14.987-2.498.127-4.995.258-7.493.392 10.319-17.223 20.645-33.212 30.976-48.368 1.986.091 3.971.18 5.957.266 10.296 15.908 20.598 30.898 30.903 45.368-2.503.067-5.005.138-7.508.212-3.054-4.399-6.108-8.85-9.161-13.364Zm-17.213-26.551c-5 7.447-10 15.089-14.998 22.973 9.923-.086 19.851-.161 29.783-.225-4.929-7.395-9.858-14.963-14.785-22.748Zm-56.635 20.003c-11.665.038-23.319.079-34.961.125V67.39c-4.21.324-8.418.659-12.625 1.005V8.324c4.207.383 8.415.754 12.625 1.113v23.016c11.642.243 23.296.464 34.961.663V12.148c4.292.3 8.585.587 12.88.862v51.157c-4.295.248-8.588.507-12.88.777V41.186ZM28.411 60.517c3.424 1.898 7.396 2.634 11.919 2.314 4.01-.283 7.567-1.332 10.671-3.086 3.102-1.753 5.676-4.053 7.721-6.888 3.762 1.691 7.525 3.324 11.289 4.902-3.143 4.251-7.273 7.79-12.384 10.626-5.113 2.832-10.88 4.658-17.297 5.327-6.93.722-13.105-.071-18.529-2.631-5.426-2.555-9.663-6.671-12.718-12.384-3.055-5.705-4.581-12.705-4.581-20.749 0-8.114 1.526-15.133 4.581-20.799 3.055-5.675 7.292-9.756 12.718-12.28C27.225 2.34 33.4 1.604 40.33 2.404c6.417.742 12.184 2.63 17.297 5.517 5.111 2.889 9.241 6.502 12.384 10.841-3.764 1.542-7.527 3.137-11.289 4.789-2.045-2.855-4.619-5.18-7.721-6.968-3.104-1.785-6.661-2.873-10.671-3.201-4.523-.37-8.495.321-11.919 2.18-3.425 1.856-6.064 4.716-7.921 8.586-1.856 3.869-2.784 8.529-2.784 13.88 0 5.282.928 9.92 2.784 13.809 1.857 3.894 4.496 6.784 7.921 8.68Z"/></svg>